<?xml version="1.0" encoding="UTF-8"?>
<svg width="16px" height="15px" viewBox="0 0 16 15" version="1.1" xmlns="http://www.w3.org/2000/svg" xmlns:xlink="http://www.w3.org/1999/xlink">
    <!-- Generator: Sketch 62 (91390) - https://sketch.com -->
    <title>Onion Secure Mixed</title>
    <desc>Created with Sketch.</desc>
    <g id="All" stroke="none" stroke-width="1" fill="none" fill-rule="evenodd">
        <g id="O2A4" transform="translate(-302.000000, -628.000000)">
            <g id="Onion-Secure-Mixed" transform="translate(302.000000, 628.000000)">
                <path d="M15.818,13.127 L12.629,6.716 C12.4115949,6.279935 11.9662552,6.00434545 11.479,6.00434545 C10.9917448,6.00434545 10.5464051,6.279935 10.329,6.716 L7.137,13.127 C6.93671615,13.5272943 6.95752606,14.0026686 7.19202317,14.38393 C7.42652028,14.7651913 7.8413999,14.9981907 8.289,15 L14.666,15 C15.1136001,14.9981907 15.5284797,14.7651913 15.7629768,14.38393 C15.9974739,14.0026686 16.0182839,13.5272943 15.818,13.127 L15.818,13.127 Z" id="Path" fill="#FFBF00" fill-rule="nonzero"></path>
                <path d="M11.478,7 C11.5880529,6.99691091 11.6891144,7.06046912 11.734,7.161 L14.922,13.573 C14.9700205,13.6653446 14.9650635,13.7763052 14.909,13.864 C14.8588921,13.9504095 14.7658698,14.0028542 14.666,14.0010476 L8.289,14.0010476 C8.18913025,14.0028542 8.09610788,13.9504095 8.046,13.864 C7.98973151,13.7763703 7.98476952,13.6652981 8.033,13.573 L11.221,7.161 C11.266025,7.06012475 11.367588,6.99649971 11.478,7 M11.478,5.99997508 C10.9881683,5.99694272 10.5401034,6.27542751 10.326,6.716 L7.137,13.127 C6.93671615,13.5272943 6.95752606,14.0026686 7.19202317,14.38393 C7.42652028,14.7651913 7.8413999,14.9981907 8.289,15 L14.666,15 C15.1136001,14.9981907 15.5284797,14.7651913 15.7629768,14.38393 C15.9974739,14.0026686 16.0182839,13.5272943 15.818,13.127 L12.629,6.716 C12.4150527,6.27575459 11.9674715,5.99732871 11.478,5.99997508 Z" id="Shape" fill="#D76E00" fill-rule="nonzero" opacity="0.35"></path>
                <path d="M11.5,11 C11.7761424,11 12,10.7761424 12,10.5 L12,8.5 C12,8.22385763 11.7761424,8 11.5,8 C11.2238576,8 11,8.22385763 11,8.5 L11,10.5 C11,10.7761424 11.2238576,11 11.5,11 Z M11.5,11.809 C11.1183712,11.809 10.809,12.1183712 10.809,12.5 C10.809,12.8816288 11.1183712,13.191 11.5,13.191 C11.8816288,13.191 12.191,12.8816288 12.191,12.5 C12.191,12.1183712 11.8816288,11.809 11.5,11.809 L11.5,11.809 Z" id="Shape" fill="#FFFFFF" fill-rule="nonzero"></path>
                <path d="M7.0602,5.552 C7.8792,5.56 8.5402,6.225 8.5402,7.046 C8.5402,7.866 7.8792,8.532 7.0602,8.54 L7.0602,5.552 Z M6.2882,12.756 L9.4722,6.353 C9.5182,6.259 9.5872,6.184 9.6442,6.098 C9.2582,5.039 8.2522,4.277 7.0602,4.271 L7.0602,3.417 C8.4802,3.423 9.6962,4.251 10.2872,5.443 C10.6492,5.21 11.0752,5.074 11.5192,5.074 L11.5292,5.074 L11.5312,5.074 C11.5332,5.074 11.5362,5.075 11.5382,5.075 C10.7802,3.35 9.0642,2.141 7.0602,2.135 L7.0602,1.281 C9.6442,1.288 11.8282,2.993 12.5532,5.34 C12.9862,5.561 13.3542,5.9 13.5702,6.344 L14.0762,7.361 C14.0802,7.256 14.0912,7.152 14.0912,7.046 C14.0912,3.155 10.9372,0 7.0462,0 C3.1542,0 0.0002,3.155 0.0002,7.046 C0.0002,10.603 2.6382,13.536 6.0632,14.015 C6.0192,13.595 6.0852,13.16 6.2882,12.756 L6.2882,12.756 Z" id="Fill-1" fill="#1F1410"></path>
            </g>
        </g>
    </g>
</svg>