<?xml version="1.0" encoding="utf-8"?>
<!-- Generator: Adobe Illustrator 23.0.6, SVG Export Plug-In . SVG Version: 6.00 Build 0)  -->
<svg version="1.1" id="Layer_1" xmlns="http://www.w3.org/2000/svg" xmlns:xlink="http://www.w3.org/1999/xlink" x="0px" y="0px"
	 viewBox="0 0 93 96" style="enable-background:new 0 0 93 96;" xml:space="preserve">
<style type="text/css">
	.st0{fill-rule:evenodd;clip-rule:evenodd;fill:#0C0C0D;}
	.st1{fill:#FF0039;}
</style>
<g>
	<path class="st0" d="M17.3,80.9l30.8-32.2V38.5c2.7,0,5.2,1.2,6.9,3.1l5.7-5.9c-3.2-3.3-7.6-5.3-12.6-5.3v-5.5
		c6.4,0,12.2,2.6,16.3,6.8l5.7-5.9c-5.6-5.6-13.4-9.1-22-9.1v-5.5c10,0,19.1,4.1,25.8,10.6l5.7-5.9C71.4,7.9,60.3,3,48,3
		C23.1,3,3,23.1,3,48C3,61,8.5,72.7,17.3,80.9z"/>
	<path class="st0" d="M86.7,25l-5.9,6.2c2.6,5,4,10.7,4,16.8c0,20.3-16.4,36.8-36.7,36.8v-5.5c17.3,0,31.3-14.1,31.3-31.4
		c0-4.5-0.9-8.7-2.6-12.6l-6.3,6.6c0.5,1.9,0.8,3.9,0.8,5.9c0,12.8-10.3,23.1-23.1,23.2v-5.5c9.7-0.1,17.6-8,17.6-17.7
		c0-0.3,0-0.7,0-1L26.8,87.7C33.1,91.1,40.3,93,48,93c24.9,0,45-20.1,45-45C93,39.6,90.7,31.8,86.7,25z"/>
</g>
<path id="Strike" class="st1" d="M6.9,96c-2.5,0-4.8-1.6-5.8-4c-1-2.4-0.4-5.3,1.4-7.1l79.4-83c2.5-2.5,6.4-2.4,8.8,0.1
	s2.5,6.6,0.1,9.2l-79.4,83C10.1,95.3,8.5,96,6.9,96z"/>
</svg>
